<svg width="667" height="667" viewBox="0 0 667 667" fill="none" xmlns="http://www.w3.org/2000/svg">
<g clip-path="url(#clip0_34_2)">
<path d="M0 666.635H666.667V0.000121115H0V666.635Z" fill="white"/>
<mask id="mask0_34_2" style="mask-type:luminance" maskUnits="userSpaceOnUse" x="0" y="0" width="667" height="667">
<path d="M0 666.635H666.633V0.000121115H0V666.635Z" fill="white"/>
</mask>
<g mask="url(#mask0_34_2)">
<path d="M524.056 234.06C541.184 247.456 558.463 260.671 575.847 273.731C584.644 263.289 593.443 252.849 602.24 242.408C608.22 235.311 614.195 228.2 620.147 221.071C605.035 205.901 588.88 191.865 572.401 178.181C555.961 196.509 540.095 215.369 524.056 234.06Z" fill="#DCDCDC"/>
<path d="M608.204 140.166C603.227 145.385 598.25 150.602 593.272 155.821C587.286 162.097 581.446 168.507 575.654 174.963C592.132 188.647 608.287 202.683 623.399 217.853C636.506 202.157 649.45 186.323 661.898 170.126C646.311 157.801 631.372 144.659 617.338 130.59C614.294 133.782 611.25 136.974 608.204 140.166Z" fill="#DCDCDC"/>
<path d="M563.548 86.3362C562.759 88.4628 561.856 90.5522 560.796 92.5882C560.323 93.4922 559.709 94.3028 559.189 95.1748C572.16 109.44 586.652 122.321 602.429 133.405C603.419 134.1 604.453 134.731 605.527 135.28C608.572 132.088 611.616 128.896 614.661 125.705C616.408 123.873 618.155 122.043 619.901 120.213C624.104 115.805 628.325 111.377 631.843 106.407C636.199 100.247 639.216 93.4655 641.449 86.3735C615.481 86.2802 589.516 86.2815 563.548 86.3362Z" fill="#DCDCDC"/>
<path d="M522.383 235.946C518.999 239.89 515.632 243.851 512.217 247.767C497.64 264.494 483.011 281.294 470.959 299.921C462.776 312.566 455.967 325.687 451.305 339.973C455.559 343.366 461.36 348.419 465.444 352.057C474.572 360.185 483.649 367.701 493.111 372.334C519.836 340.617 547.449 307.333 574.173 275.617C556.789 262.557 539.511 249.341 522.383 235.946Z" fill="#28A745"/>
<path d="M579.084 279.195C552.361 310.911 525.177 343.668 498.451 375.383C526.89 388.556 532.307 391.396 545.801 396.047C561.863 401.583 565.985 403.317 598.952 409.016V294.117C592.28 289.199 585.706 284.169 579.084 279.195Z" fill="#28A745"/>
<path d="M274.499 379.607C274.499 379.607 319.064 411.295 324.029 414.083C334.821 394.826 344.936 377.47 356.996 359.14C341.055 348.783 324.877 337.598 308.58 327.79C307.488 329.871 285.431 363.552 274.499 379.607Z" fill="#DCDCDC"/>
<path d="M567.823 56.3466C568.415 56.3612 568.415 56.3612 567.823 56.3466C567.324 63.9186 566.14 71.3546 563.548 78.3439C589.516 78.2892 615.481 78.2879 641.449 78.3812C646.595 62.0279 647.091 43.8292 646.805 26.4359C646.803 26.2892 646.795 26.1412 646.793 25.9932C620.453 27.5106 594.093 28.6506 567.719 29.3279C567.76 30.4812 567.803 31.6346 567.847 32.7879C568.132 40.5746 568.337 48.5319 567.823 56.3466Z" fill="#DCDCDC"/>
<path d="M518.831 232.354C509.199 224.82 495.335 213.962 485.751 206.34C480.332 202.031 479.084 201.054 473.824 196.427C462.792 210.902 450.505 224.756 439.412 239.183C431.532 249.43 422.144 261.132 415.889 272.444C409.84 283.382 406.721 293.123 401.228 304.344C416.192 314.591 431.512 325.175 447.376 336.487C452.037 322.203 462.075 302.98 470.255 290.335C482.307 271.708 515.445 236.298 518.831 232.354Z" fill="#DCDCDC"/>
<path d="M340.044 271.609C330.656 289.493 322.083 305.83 312.695 323.714C328.992 333.524 345.132 343.564 361.073 353.922C367.323 344.425 373.993 335.241 381.448 326.645C387.296 319.9 391.204 313.205 395.128 305.19C378.333 294.592 341.392 272.473 340.044 271.609Z" fill="#DCDCDC"/>
<path d="M434.995 236.779C446.088 222.352 457.227 207.956 468.259 193.481C453.825 180.788 439.805 167.239 425.281 154.589C424.476 155.311 423.7 156.064 422.844 156.731C415.519 162.432 405.871 166.337 402.263 174.892C401.003 177.883 399.495 180.728 397.881 183.512C388.72 199.339 374.715 212.348 364.631 227.785C358.847 236.639 353.923 246.019 349.009 255.381C346.707 259.767 344.683 263.624 342.381 268.008C343.729 268.873 380.744 290.691 397.539 301.288C403.032 290.065 406.9 279.572 412.948 268.635C419.204 257.323 427.116 247.027 434.995 236.779Z" fill="#DCDCDC"/>
<path d="M322.1 31.7111C327.362 27.1164 332.656 22.5564 337.821 17.8524C339.729 16.1137 341.68 14.3031 342.762 11.9604C344.838 7.46173 343.186 1.99106 340.16 -1.93027C337.133 -5.85294 332.921 -8.64894 329.072 -11.7663C328.14 -12.5196 327.282 -13.3583 326.388 -14.1543C317.605 -6.8036 308.793 0.50706 300.152 8.02306C307.121 16.2377 314.413 24.1631 322.1 31.7111Z" fill="#DCDCDC"/>
<path d="M290.27 58.3719C300.727 49.9612 310.966 41.2906 321.075 32.4652C313.389 24.9172 306.097 16.9919 299.127 8.77856C289.674 16.9999 280.379 25.3999 271.098 33.8159C271.695 34.5852 272.339 35.3159 272.93 36.0906C278.639 43.5759 284.075 51.2866 290.27 58.3719Z" fill="#DCDCDC"/>
<path d="M303.08 323.926C286.529 313.963 269.801 304.257 252.92 294.749C243.475 308.327 234.287 322.053 226.015 336.277C223.051 341.373 221.961 343.045 218.877 348.067C236.132 357.823 253.669 367.577 270.999 377.358C281.932 361.303 290.805 347.313 299.803 330.17C300.896 328.089 301.988 326.007 303.08 323.926Z" fill="#DCDCDC"/>
<path d="M288.921 59.579C282.726 52.4937 277.29 44.783 271.581 37.299C270.99 36.523 270.346 35.7937 269.749 35.023C265.958 38.459 262.063 41.7777 258.303 45.2457C247.951 54.7923 237.555 64.6523 230.575 76.8817C225.147 86.3897 221.075 95.1817 215.697 104.718C214.807 106.294 213.898 107.826 213.006 109.395C230.778 120.274 248.551 131.152 266.323 142.03C266.629 141.718 266.895 141.37 267.207 141.063C275.407 133.015 285.602 127.356 294.787 120.455C297.087 118.726 299.35 116.876 301.491 114.902C307.898 108.991 318.675 88.2323 319.711 85.1177C309.081 78.603 297.662 69.507 289.398 60.1683C289.23 59.979 289.087 59.7697 288.921 59.579Z" fill="#DCDCDC"/>
<path d="M212.148 110.397C202.083 128.115 190.95 144.361 180.496 161.581C189.096 166.892 197.719 172.196 206.282 177.563C216.026 162.592 229.394 142.491 239.435 127.099C229.962 121.301 221.62 116.196 212.148 110.397Z" fill="#DCDCDC"/>
<path d="M240.605 127.855C230.565 143.247 217.224 163.306 207.479 178.276C215.503 183.306 223.38 188.55 231.287 193.763C237.156 184.396 242.795 175.396 248.664 166.031C253.712 157.976 258.865 149.882 265.504 143.095C257.205 138.015 248.905 132.936 240.605 127.855Z" fill="#DCDCDC"/>
<path d="M179.306 160.442C189.759 143.221 200.95 127.421 211.017 109.705C193.017 98.6875 173.423 87.4849 155.425 76.4689C149.126 93.0409 140.99 108.236 128.978 121.126C127.261 122.969 126.301 124.266 124.678 126.178C130.699 129.981 136.773 134.168 142.75 138.042C154.803 145.853 167.094 152.901 179.306 160.442Z" fill="#DCDCDC"/>
<path d="M379.173 73.7418C385.909 58.1938 391.533 42.1098 400.123 27.5204C402.253 23.9018 404.543 20.3578 406.648 16.7244C400.447 13.8511 394.531 10.2951 389.061 6.27376C384.764 3.11509 380.239 -0.692907 376.453 -4.43691C366.875 13.2418 355.407 29.9084 344.951 47.0751C339.563 55.9204 334.627 64.9671 330.712 74.4831C346.865 74.1978 363.02 73.9698 379.173 73.7418Z" fill="#28A745"/>
<path d="M292.072 60.0711C300.336 69.4097 310.032 77.4551 320.662 83.9697C321.617 81.1017 322.674 78.2817 323.818 75.5017C327.733 65.9857 332.669 56.9391 338.057 48.0924C332.685 43.4204 327.478 38.5631 322.4 33.5751C312.29 42.4004 302.052 51.0711 291.594 59.4817C291.761 59.6724 291.904 59.8817 292.072 60.0711Z" fill="#DCDCDC"/>
<path d="M473.474 74.0541C475.163 70.9021 476.701 67.6728 477.929 64.2981C479.646 59.5821 480.755 54.6968 481.601 49.7501C482.629 43.7368 483.243 37.6275 483.791 31.5488C483.978 29.4955 484.157 27.4368 484.333 25.3768C470.427 25.3328 456.521 25.3275 442.617 25.0501C437.493 24.9475 432.441 24.1195 427.491 22.8235C424.642 39.9021 422.974 57.1755 422.485 74.4835C439.481 74.2875 456.478 74.1875 473.474 74.0541Z" fill="#28A745"/>
<path d="M384.167 74.4832C396.121 74.3139 408.075 74.1032 420.028 73.9659C420.519 56.6579 422.185 39.3845 425.035 22.3045C420.456 21.1045 415.976 19.4752 411.641 17.4659C409.537 21.1005 407.248 24.6445 405.117 28.2619C396.528 42.8525 390.903 58.9365 384.167 74.4832Z" fill="#28A745"/>
<path d="M485.395 49.8452C510.207 50.4838 535.019 51.1238 559.831 51.7625C560.345 43.9478 560.143 35.9905 559.855 28.2038C559.812 27.0505 559.769 25.8972 559.727 24.7438C535.865 25.3558 511.996 25.5452 488.128 25.4705C487.951 27.5305 487.772 29.5905 487.587 31.6438C487.037 37.7225 486.423 43.8318 485.395 49.8452Z" fill="#DCDCDC"/>
<path d="M279.76 -15.8514C269.704 -7.77009 259.793 0.481908 250.04 8.92458C256.885 16.5872 263.532 24.4152 269.832 32.5299C279.112 24.1152 288.408 15.7139 297.861 7.49257C291.485 -0.0220938 285.488 -7.83276 279.76 -15.8514Z" fill="#DCDCDC"/>
<path d="M346.03 143.604C362.058 153.836 377.669 164.716 392.722 176.335C394.334 173.55 395.841 170.704 397.102 167.715C400.71 159.16 410.357 155.255 417.682 149.552C418.539 148.886 419.315 148.132 420.119 147.411C403.802 133.2 386.81 120.195 367.869 110.826C360.993 121.987 353.305 132.688 346.03 143.604Z" fill="#28A745"/>
<path d="M516.884 134.396C501.534 121.725 486.444 108.768 472.147 94.9427C468.36 100.996 464.07 106.78 459.748 112.469C457.607 115.291 455.466 118.113 453.323 120.933C448.784 126.913 444.244 132.893 439.704 138.872C435.835 143.971 431.859 149.065 427.111 153.325C441.635 165.976 455.654 179.524 470.087 192.219C474.143 186.897 478.236 181.604 482.234 176.24C493.06 161.713 504.635 147.747 516.884 134.396Z" fill="#DCDCDC"/>
<path d="M487.896 178.889C483.899 184.253 479.807 189.546 475.752 194.866C481.012 199.493 486.325 204.011 491.745 208.321C501.329 215.942 511.004 223.403 520.636 230.935C536.675 212.245 552.539 193.385 568.98 175.057C553.596 162.285 537.973 149.775 522.548 137.045C510.299 150.394 498.723 164.362 487.896 178.889Z" fill="#DCDCDC"/>
<path d="M518.552 132.065C522.799 127.437 527.12 122.877 531.527 118.401C538.668 111.152 546.011 103.88 551.197 95.1759C550.445 94.3465 550.445 94.3465 551.197 95.1759C551.717 94.3025 552.332 93.4919 552.803 92.5879C553.865 90.5519 554.768 88.4625 555.556 86.3359C529.46 86.3905 503.364 86.5199 477.268 86.7239C476.195 88.7265 475.023 90.6772 473.813 92.6105C488.111 106.437 503.2 119.395 518.552 132.065Z" fill="#DCDCDC"/>
<path d="M326.294 178.426C317.168 199.237 306.104 217.707 293.448 236.646C307.548 245.694 321.488 254.787 335.588 263.837C337.891 259.451 339.71 255.985 342.012 251.599C346.926 242.237 351.85 232.857 357.632 224.005C367.718 208.567 381.723 195.557 390.884 179.731C375.831 168.113 360.222 157.233 344.192 147.001C337.479 157.074 331.151 167.35 326.294 178.426Z" fill="#28A745"/>
<path d="M524.056 134.72C539.48 147.45 555.105 159.96 570.488 172.732C576.28 166.276 582.121 159.865 588.108 153.589C593.084 148.37 598.063 143.153 603.04 137.936C601.967 137.385 600.932 136.754 599.943 136.058C584.165 124.976 569.673 112.094 556.703 97.8303C551.516 106.534 544.172 113.805 537.032 121.056C532.625 125.53 528.304 130.09 524.056 134.72Z" fill="#DCDCDC"/>
<path d="M84.0553 105.317C74.598 99.6625 64.8326 94.1252 54.542 90.1879C46.4433 87.0892 37.9766 84.8159 29.3326 84.1252C23.614 83.6692 14.0046 83.4399 6.10464 83.5212C-6.25803 83.6492 -18.878 83.6265 -31.2407 83.7545C-32.23 87.9079 -33.0207 92.1105 -33.394 96.3825C-34.1034 104.505 -34.61 112.648 -35.3914 120.748C-12.2327 123.613 9.58331 135.056 29.3606 147.925C47.926 160.005 64.7646 172.775 84.4006 182.809C95.1446 163.456 105.101 144.317 119.323 127.561C107.166 119.389 96.5846 112.808 84.0553 105.317Z" fill="#DCDCDC"/>
<path d="M255.418 290.915C272.299 300.423 289.027 310.13 305.578 320.093C314.965 302.209 323.691 285.302 333.078 267.418C318.978 258.37 304.934 249.243 290.834 240.195C279.206 257.594 267.402 273.686 255.418 290.915Z" fill="#DCDCDC"/>
<path d="M144.608 215.179C145.628 213.552 146.649 211.925 147.669 210.297C157.359 194.851 166.832 179.543 176.164 164.169C163.952 156.628 151.749 149.067 139.696 141.255C133.719 137.381 127.684 133.597 121.663 129.793C107.44 146.549 97.1561 164.564 86.4121 183.916C91.1988 186.364 94.8534 188.849 99.8894 190.799C115.504 196.84 130.577 206.019 144.608 215.179Z" fill="#DCDCDC"/>
<path d="M559.831 56.3465C535.019 55.7079 510.207 55.0679 485.395 54.4292C484.549 59.3745 483.44 64.2599 481.724 68.9772C480.495 72.3505 478.959 75.5799 477.268 78.7332C503.364 78.5279 529.46 78.3985 555.556 78.3439C558.148 71.3545 559.332 63.9185 559.831 56.3465Z" fill="#DCDCDC"/>
<path d="M274.021 225.438C278.399 228.247 283.091 230.324 287.469 233.132C300.126 214.195 311.303 195.552 320.43 174.742C325.286 163.664 331.615 153.388 338.329 143.315C327.71 136.536 316.946 129.983 305.945 123.843C303.803 125.819 301.542 127.667 299.241 129.396C290.055 136.299 279.861 141.956 271.661 150.004C271.349 150.312 271.082 150.659 270.777 150.971C264.138 157.758 258.985 165.852 253.937 173.907C248.067 183.272 244.183 189.471 238.314 198.838C245.054 203.998 252.489 211.264 259.725 216.419C264.55 219.856 269.034 222.238 274.021 225.438Z" fill="#28A745"/>
<path d="M195.253 250.279C206.406 232.482 217.558 214.685 228.712 196.887C220.805 191.674 212.833 186.563 204.809 181.534L171.317 232.985C179.294 238.741 187.238 244.573 195.253 250.279Z" fill="#DCDCDC"/>
<path d="M169.029 233.979C161.18 228.317 153.281 222.759 145.232 217.505C132.992 237.021 120.752 256.535 108.511 276.05C117.539 278.811 126.247 282.519 134.405 287.169C145.947 269.439 157.488 251.709 169.029 233.979Z" fill="#DCDCDC"/>
<path d="M203.935 181.035C195.374 175.668 186.803 170.312 178.203 165.001C168.871 180.376 159.396 195.683 149.707 211.131C148.687 212.757 147.667 214.384 146.646 216.011C154.695 221.265 162.594 226.823 170.443 232.485L203.935 181.035Z" fill="#DCDCDC"/>
<path d="M187.133 263.665C189.511 259.869 191.89 256.073 194.269 252.277C186.254 246.571 178.31 240.739 170.333 234.983C158.791 252.713 147.25 270.443 135.709 288.172C143.913 292.848 151.566 298.467 158.423 305.035C160.239 306.776 162.122 308.423 164.005 310.071C168.997 299.911 174.041 289.855 179.522 280.323C182.635 274.911 183.817 268.956 187.133 263.665Z" fill="#DCDCDC"/>
<path d="M238.618 280.96C242.306 283.01 245.963 285.1 249.636 287.169C261.62 269.94 273.619 253.557 285.247 236.158C280.868 233.349 275.274 230.685 270.895 227.876C265.91 224.676 263.14 223.476 258.315 220.038C251.078 214.884 243.408 207.093 236 202.209C224.847 220.005 212.736 239.225 201.584 257.022C213.612 265.586 225.814 273.841 238.618 280.96Z" fill="#DCDCDC"/>
<path d="M363.4 107.213C358.508 104.793 352.656 102.13 347.478 100.246C339.573 97.3704 331.988 93.6517 324.816 89.2557C323.78 92.3704 322.834 95.5264 322.057 98.7597C320.045 107.133 314.725 114.18 308.317 120.09C319.318 126.23 330.082 132.784 340.702 139.562C347.977 128.646 356.524 118.374 363.4 107.213Z" fill="#28A745"/>
<path d="M402.303 87.1531C402.31 86.9024 402.306 87.0277 402.303 87.1531Z" fill="#DCDCDC"/>
<path d="M382.893 78.3809C380.86 83.0756 378.454 90.4023 376.101 94.9423C373.828 99.3303 371.909 104.188 369.314 108.397C388.257 117.766 405.25 132.002 421.568 146.213C426.316 141.953 430.292 136.857 434.161 131.758C438.7 125.78 443.442 120.094 447.117 113.47C431.565 105.297 413.454 90.2703 400.201 78.7329C400.201 78.7329 390.038 78.3809 382.893 78.3809Z" fill="#28A745"/>
<path d="M420.799 78.81C420.791 79.062 420.795 78.9367 420.798 78.81C415.399 78.8727 409.118 78.5967 403.718 78.678C416.971 90.2153 433.958 102.086 449.51 110.259C451.653 107.439 453.794 104.617 455.938 101.795C460.257 96.106 464.549 90.322 468.334 84.2687C469.543 82.3353 470.715 80.3833 471.787 78.3807C454.791 78.514 437.795 78.614 420.799 78.81Z" fill="#28A745"/>
<path d="M402.303 87.1531C402.299 87.2797 402.297 87.4051 402.303 87.1531Z" fill="#DCDCDC"/>
<path d="M364.324 106.025C366.916 101.816 369.332 96.5916 371.607 92.2022C373.959 87.6636 375.022 83.0769 377.056 78.3809C360.903 78.6102 344.747 78.8369 328.595 79.1236C327.451 81.9036 326.394 84.7236 325.439 87.5902C332.611 91.9862 340.196 95.7049 348.102 98.5809C353.28 100.466 359.432 103.605 364.324 106.025Z" fill="#28A745"/>
<path d="M246.677 290.791C243.005 288.721 239.346 286.632 235.658 284.581C222.854 277.461 210.653 269.208 198.625 260.644C196.246 264.44 193.868 268.236 191.489 272.032C188.173 277.323 186.992 283.277 183.878 288.689C178.397 298.221 174.924 305.088 169.932 315.249C182.829 326.535 197.688 335.627 212.649 344.085C215.733 339.061 216.808 337.416 219.772 332.319C228.042 318.095 237.232 304.371 246.677 290.791Z" fill="#DCDCDC"/>
<path d="M136.693 291.445C128.535 286.795 119.827 283.087 110.799 280.326C108.924 283.315 107.051 286.303 105.175 289.291C86.052 319.781 66.928 350.269 47.804 380.758C62.2146 391.102 77.3 402.234 91.7093 412.578C94.4426 410.762 96.4973 408.155 99.2306 406.338C131.011 385.217 147.665 348.605 164.989 313.343C163.107 311.695 161.223 310.047 159.408 308.307C152.551 301.738 144.897 296.121 136.693 291.445Z" fill="#DCDCDC"/>
<path d="M279.141 -16.4719C276.614 -20.0092 273.281 -23.5786 270.886 -27.2066H214.321C224.719 -16.4119 238.651 -2.91856 248.637 8.2561C258.39 -0.186562 269.086 -8.39056 279.141 -16.4719Z" fill="#DCDCDC"/>
<path d="M212.416 -26.9712H180.631C180.012 -21.4606 178.929 -14.9339 178.071 -9.53522L219.605 31.9981C230.267 22.7101 240.083 14.2461 246.731 8.49144C236.747 -2.68456 222.813 -16.1766 212.416 -26.9712Z" fill="#DCDCDC"/>
<path d="M177.769 -7.64575C174.636 12.0542 169.814 31.4929 164.168 50.6396C161.692 59.0302 158.974 67.4436 155.846 75.6729C159.598 77.9689 162.222 79.5756 165.974 81.8716C179.116 69.1609 201.741 47.8262 218.576 33.1609L177.769 -7.64575Z" fill="#DCDCDC"/>
<path d="M248.525 10.4265C241.877 16.1812 232.061 24.6465 221.399 33.9332C204.565 48.5999 181.195 70.2452 168.054 82.9559C182.302 91.6759 197.327 99.6825 211.575 108.404C212.466 106.835 213.375 105.303 214.265 103.727C219.643 94.1905 223.717 85.3985 229.143 75.8905C236.123 63.6612 246.521 53.8012 256.871 44.2559C260.633 40.7879 264.526 37.4679 268.317 34.0319C262.018 25.9172 255.37 18.0892 248.525 10.4265Z" fill="#DCDCDC"/>
<path d="M314.216 -27.2062H293.911C290.18 -24.2889 284.367 -19.4862 280.675 -16.5195C286.403 -8.50221 292.401 -0.690213 298.776 6.82312C307.417 -0.69288 316.231 -8.00354 325.012 -15.3542C321.013 -18.9209 317.381 -22.8822 314.216 -27.2062Z" fill="#DCDCDC"/>
<path d="M158.159 -26.9712H96.2268C83.6148 -18.4486 64.4055 -9.02989 50.8841 -3.62456C30.1308 4.67278 10.5375 16.5381 -4.73052 32.8594C-17.0705 46.0514 -26.3599 62.3208 -30.5319 79.8221C-18.1705 79.6954 -5.80919 79.5688 6.55347 79.4408C14.4535 79.3608 22.3748 79.2794 30.2295 80.1261C38.8508 81.0554 47.4575 82.8741 55.5548 85.9728C65.8468 89.9101 77.8175 95.7808 87.2735 101.435C99.8028 108.926 110.256 115.91 122.599 123.706C124.221 121.794 125.192 120.485 126.909 118.642C138.92 105.751 147.009 89.9901 153.308 73.4181C156.435 65.1901 159.153 56.7754 161.628 48.3848C167.276 29.2381 173.289 10.5154 176.423 -9.1859L158.159 -26.9712Z" fill="#28A745"/>
<path d="M22.1764 -1.66385C22.9964 7.67482 23.9991 17.1055 25.3564 26.2108C25.3564 26.2108 23.4271 10.9162 22.1764 -1.66385Z" fill="#28A745"/>
<path d="M25.6074 26.1779C25.6128 26.1752 25.6194 26.1712 25.6248 26.1672C24.7408 19.7659 23.0701 7.31919 22.1768 -1.66348C22.8834 6.38052 24.3448 17.4112 25.6074 26.1779Z" fill="#28A745"/>
<path d="M26.2102 30.3524C26.2102 30.3524 25.9782 28.7298 25.6249 26.1671C25.6195 26.1711 25.6129 26.1751 25.6075 26.1778C25.8115 27.5884 26.0222 29.0911 26.2102 30.3524Z" fill="#28A745"/>
<path d="M19.7051 10.7632C18.4424 1.99656 16.6624 -9.35943 15.9544 -17.4048C15.6037 -20.9368 15.3037 -24.2674 15.1171 -26.9714H-49.3149V5.15256C-38.7776 14.9499 -21.7349 28.6472 -9.73894 35.8046C-8.75228 34.2526 9.54105 17.0819 19.7051 10.7632Z" fill="#28A745"/>
<path d="M93.7708 -26.9712H16.3441C16.5601 -23.8285 16.9014 -20.6005 17.1814 -17.4045C18.0748 -8.42052 19.7455 4.02615 20.6295 10.4261C29.4521 4.94348 38.7868 0.230148 48.4281 -3.62452C61.9495 -9.02985 81.1588 -18.4485 93.7708 -26.9712Z" fill="#28A745"/>
<path d="M389.41 4.22083C394.879 8.24083 400.795 11.7968 406.997 14.6702C408.657 11.8048 410.213 8.88883 411.417 5.8035C413.754 -0.185833 414.694 -6.55117 414.982 -12.9912C415.194 -17.7272 415.091 -22.5005 414.737 -27.2138H387.039C384.362 -19.9738 381.065 -13.0352 377.403 -6.2765C381.189 -2.53117 385.111 1.06217 389.41 4.22083Z" fill="#28A745"/>
<path d="M330.867 -11.8462C334.718 -8.7289 338.929 -5.9329 341.955 -2.01024C344.983 1.91243 346.635 7.38177 344.558 11.8791C343.475 14.2231 341.525 16.0351 339.617 17.7724C334.451 22.4764 328.359 27.8724 323.095 32.4658C328.175 37.4551 333.521 42.4138 338.893 47.0871C349.346 29.9191 362.079 12.5311 371.658 -5.14757C365.062 -11.6702 358.449 -19.9342 352.666 -27.2062L343.17 -27.2142C338.425 -23.1742 332.901 -18.1836 328.183 -14.2342C329.078 -13.4369 329.937 -12.5996 330.867 -11.8462Z" fill="#DCDCDC"/>
<path d="M488.128 22.0627C511.996 22.1374 535.865 21.948 559.726 21.336C559.129 5.15204 558.533 -11.0306 557.934 -27.2146H487.896C490.485 -11.032 489.538 5.60671 488.128 22.0627Z" fill="#DCDCDC"/>
<path d="M421.578 -10.4387C421.29 -3.99732 420.595 -0.17732 418.258 5.81201C417.054 8.89735 415.498 11.8133 413.838 14.6787C418.173 16.6867 422.651 18.3173 427.231 19.5173C432.181 20.8133 437.233 21.6427 442.357 21.744C456.261 22.0213 470.166 22.0267 484.073 22.0707C485.046 10.728 485.81 2.24135 485.335 -9.06532C464.955 -8.54799 441.657 -9.01065 421.578 -10.4387Z" fill="#28A745"/>
<path d="M227.069 594.815C235.397 535.098 298.306 463.285 305.278 446.785C294.817 446.725 263.093 446.645 252.625 446.806C238.305 447.027 227.538 447.247 213.216 447.469C204.72 460.859 196.666 474.403 193.997 489.923C182.494 556.787 189.744 625.294 194.662 693.049H229.292C223.758 680.062 222.634 626.617 227.069 594.815Z" fill="#DCDCDC"/>
<path d="M192.344 490.883C195.013 475.363 203.592 460.859 212.088 447.468C190.71 447.799 169.904 448.08 148.528 448.411C144.729 460.902 145.665 474.65 146.378 487.758C150.093 555.948 150.28 624.694 146.961 693.048H192.165C187.246 625.295 180.841 557.747 192.344 490.883Z" fill="#DCDCDC"/>
<path d="M436.958 628.447C437.548 613.784 437.513 599.139 435.952 584.528C433.522 561.78 431.176 539.023 428.913 516.257C427.097 497.979 425.396 479.645 425.61 461.285H352.37C337.093 461.919 321.814 461.84 306.532 461.752C292.772 483.649 278.789 505.424 264.962 527.263C259.74 535.512 254.493 543.808 250.674 552.792C247.469 560.333 244.088 570.683 242.238 578.665C238.82 593.425 235.165 612.464 235.25 627.615C235.37 649.092 235.418 664.129 245.11 692.381L432.4 693.048C433.744 666.5 435.893 654.933 436.958 628.447Z" fill="#DCDCDC"/>
<path d="M721.188 636.439H441.141C440.076 662.926 438.656 666.5 437.312 693.048H721.188V636.439Z" fill="#DCDCDC"/>
<path d="M1.55212 597.145C2.09079 564.635 8.75212 532.506 8.54012 499.995C8.47212 489.518 8.40412 479.042 8.33612 468.565C-9.36521 479.963 -27.4212 490.771 -46.4652 499.682V693.613H0.246788C2.37079 661.545 1.01879 629.303 1.55212 597.145Z" fill="#DCDCDC"/>
<path d="M7.4954 418.925C0.527404 418.837 -37.3553 420.401 -46.4646 421.563V497.495C-27.4219 488.585 -9.36593 477.777 8.33541 466.378C8.27541 457.273 8.21674 448.167 8.15807 439.062C8.11407 432.342 7.9234 425.625 7.4954 418.925Z" fill="#DCDCDC"/>
<path d="M-0.00205762 351.264C0.195276 347.754 0.560608 344.258 1.36061 340.802C6.71127 317.711 17.3446 296.688 29.7846 276.486C1.45794 283.936 -24.7687 299.194 -46.4647 319.07V351.175C-36.6914 349.255 -8.96739 348.29 -0.00205762 351.264Z" fill="#DCDCDC"/>
<path d="M-0.00205347 353.16C-8.96739 350.184 -36.6914 351.151 -46.4647 353.071V386.228C-31.7954 383.69 -12.3514 381.326 2.32594 380.93C0.673944 371.615 -0.51672 362.312 -0.00205347 353.16Z" fill="#DCDCDC"/>
<path d="M6.88412 409.117C5.81479 400.344 3.90546 391.436 2.32679 382.531C-12.3505 382.925 -31.7959 385.291 -46.4652 387.828V420.065C-37.3545 418.903 0.526789 417.337 7.49479 417.425C7.31746 414.653 7.22012 411.875 6.88412 409.117Z" fill="#DCDCDC"/>
<path d="M60.5651 226.763C69.4624 213.68 75.6624 199.003 83.3624 185.133C63.7264 175.099 47.3291 162.324 28.7637 150.243C8.9864 137.375 -12.8283 125.932 -35.9883 123.067C-36.6909 130.357 -37.6149 137.616 -39.1883 144.783C-40.8829 152.495 -45.8003 165.635 -49.3149 172.707V193.061C-39.6709 191.148 -27.6283 189.648 -17.9229 188.075C-13.3043 187.327 -7.9896 186.804 -4.50027 189.923C-2.29627 191.892 -1.35627 194.937 -1.09094 197.881C-0.337603 206.217 -4.59894 214.812 -11.6896 219.26C-14.7696 221.192 -18.2563 222.356 -21.6669 223.617C-30.4149 226.852 -38.8589 230.883 -46.9363 235.547V316.197C-25.2403 296.321 0.985066 281.065 29.3144 273.615C39.1304 257.672 50.0464 242.228 60.5651 226.763Z" fill="#DCDCDC"/>
<path d="M3.61853 693.048H142.341C143.497 669.239 144.101 649.528 144.609 625.631L4.75586 620.455C4.77053 645.94 5.3012 667.651 3.61853 693.048Z" fill="#28A745"/>
<path d="M145.53 448.457C121.56 448.827 97.5892 449.197 73.6185 449.565C64.2638 449.709 54.4425 449.695 46.2052 445.303C42.6425 447.671 39.0798 450.039 35.5172 452.407C27.6212 457.653 19.6865 462.863 11.7065 468L11.9118 499.429C12.1238 531.943 5.46249 564.072 4.92382 596.581C4.81315 603.271 4.81049 609.967 4.81449 616.661L144.749 621.455C145.698 576.745 145.465 531.985 143.045 487.547C142.33 474.439 141.732 460.947 145.53 448.457Z" fill="#28A745"/>
<path d="M521.757 490.172H597.75V467.279L498.451 463.865V490.172H521.757Z" fill="#28A745"/>
<path d="M592.529 563.097V577.131H497.254V514.479V463.865L431.285 461.286C431.069 479.646 432.79 500.561 434.606 518.838C436.869 541.603 439.215 564.359 441.645 587.107C443.206 601.718 443.241 616.363 442.651 631.027H723.435V563.097H633.781H592.529Z" fill="#28A745"/>
<path d="M632.9 508.654V549.967V557.271H709.136V508.654H632.9Z" fill="#28A745"/>
<path d="M646.793 18.0021C646.541 2.91945 645.962 -12.1552 645.091 -27.2139H565.927C566.525 -11.0299 567.121 5.15278 567.718 21.3354C594.094 20.6581 620.453 19.5194 646.793 18.0021Z" fill="#DCDCDC"/>
<path d="M157.879 428.031C154.732 433.341 151.594 438.702 149.462 444.494C149.1 445.474 148.83 446.475 148.527 447.469C169.904 447.139 191.282 446.81 212.659 446.481C214.526 443.538 216.416 440.615 218.314 437.721C221.591 432.721 223.68 429.446 227.07 424.503C210.806 415.667 194.104 404.35 180.367 392.055C172.262 404.602 165.494 415.187 157.879 428.031Z" fill="#DCDCDC"/>
<path d="M210.213 345.069C200.918 360.203 191.296 375.137 181.654 390.061C195.392 402.359 212.077 413.984 228.341 422.82C239.685 406.276 250.826 390.951 262.129 374.353C244.798 364.573 227.468 354.824 210.213 345.069Z" fill="#DCDCDC"/>
<path d="M322.469 417.169C317.503 414.38 274.757 381.628 262.794 374.875C248.117 396.431 233.239 416.487 218.99 438.227C217.094 441.12 215.598 443.421 213.731 446.364C228.051 446.144 295.587 445.243 306.049 445.303C309.575 439.689 317.934 425.261 322.469 417.169Z" fill="#DCDCDC"/>
<path d="M598.953 413.71C579.084 412 497.673 394.128 461.401 354.959C457.686 350.947 453.574 347.499 449.321 344.106C447.116 350.863 445.72 356.683 444.678 363.734C440.154 394.33 432.001 427.451 431.285 458.371L598.202 463.864L598.953 413.71Z" fill="#28A745"/>
<path d="M603.844 557.271H631.948V549.967V508.654H603.844V557.271Z" fill="#DCDCDC"/>
<path d="M521.757 493.086H498.451V570.465L584.556 570.216L584.703 556.758L597.75 556.813V493.086H521.757Z" fill="#DCDCDC"/>
<path d="M19.2824 416.576C26.2091 413.664 30.6224 406.932 34.6144 400.566C38.4651 394.428 40.9251 387.288 44.7758 381.149C42.3264 379.389 41.2664 378.629 38.8158 376.872C29.1264 369.916 19.3491 362.909 8.43309 358.104C6.25176 357.144 4.0051 356.308 1.73176 355.552C1.2171 364.705 2.40776 374.006 4.05976 383.322C5.63976 392.226 7.54909 401.134 8.61709 409.908C8.95309 412.666 9.05176 415.445 9.2291 418.216C12.6838 418.26 16.0678 417.926 19.2824 416.576Z" fill="#DCDCDC"/>
<path d="M109.05 277.429C91.078 271.932 71.8434 270.183 53.1607 272.261C45.79 273.081 38.5527 274.607 31.4087 276.485C28.6394 280.984 25.9794 285.531 23.4274 290.124C37.3607 298.728 52.178 309.311 64.6354 319.825C67.6194 322.344 73.658 325.872 77.942 327.024C86.438 313.481 94.9327 299.937 103.427 286.395C105.301 283.405 107.175 280.417 109.05 277.429Z" fill="#DCDCDC"/>
<path d="M23.0632 292.496C14.2965 308.533 7.04321 325.224 2.95121 343.174C2.16454 346.63 1.80587 350.126 1.61121 353.637C3.84721 354.392 6.05787 355.228 8.20321 356.189C18.9419 360.994 28.5619 368 38.0939 374.956C40.5045 376.716 42.9152 378.474 45.3259 380.233C55.7819 363.288 66.2379 346.342 76.6939 329.397C72.4792 328.245 66.5392 324.717 63.6032 322.197C51.3472 311.684 36.7699 301.1 23.0632 292.496Z" fill="#DCDCDC"/>
<path d="M45.78 381.802C41.4786 389.206 39.3666 395.673 35.516 401.813C32.412 406.761 29.3866 411.466 24.7906 414.89C29.5013 425.597 35.1133 437.586 45.2453 443.193C45.372 443.264 45.5146 443.286 45.6413 443.354C49.3586 440.886 53.0733 438.416 56.7893 435.945C68.016 428.484 79.2413 421.022 90.468 413.561C76.0586 403.218 60.1893 392.146 45.78 381.802Z" fill="#DCDCDC"/>
<path d="M23.7141 415.32C18.4661 418.423 12.6928 419.098 9.23682 419.055C9.66615 425.755 9.85548 432.472 9.89948 439.191L10.0768 466.508C18.0568 461.368 25.9915 456.162 33.8875 450.912C37.4501 448.546 41.0141 446.178 44.5755 443.81C44.4488 443.74 44.3061 443.718 44.1795 443.648C34.0475 438.04 28.4248 426.026 23.7141 415.32Z" fill="#DCDCDC"/>
<path d="M156.481 427.487C164.096 414.643 172.15 402.064 180.256 389.516C189.897 374.592 199.521 359.658 208.814 344.524C193.854 336.067 179.485 326.818 166.588 315.531C149.264 350.792 132.609 387.404 100.829 408.527C98.0957 410.344 95.3637 412.16 92.6304 413.976C81.4051 421.438 70.1784 428.899 58.9531 436.36C55.2371 438.83 51.5211 441.299 47.8051 443.77C56.0411 448.163 65.8637 448.178 75.2184 448.032C99.1891 447.664 123.158 447.294 147.129 446.924C147.432 445.931 147.702 444.93 148.064 443.95C150.196 438.158 153.333 432.796 156.481 427.487Z" fill="#DCDCDC"/>
<path d="M367.326 443.852C364.6 440.134 360.523 437.684 356.56 435.332C347.216 429.789 338.704 425.992 329.207 420.657C324.672 428.749 308.171 458.473 308.171 458.473C323.454 458.56 369.479 458.434 369.479 458.434C370.372 452.844 369.882 447.338 367.326 443.852Z" fill="#DCDCDC"/>
<path d="M331.09 418.013C340.589 423.351 350.579 427.971 359.923 433.513C363.889 435.865 367.963 438.316 370.689 442.033C373.246 445.52 373.502 452.78 372.61 458.372H425.607C425.618 457.424 425.573 456.479 425.595 455.532C425.971 439.285 428.409 423.079 431.285 406.915C409.913 391.24 386.435 375.217 364.354 360.872C352.294 379.203 341.882 398.756 331.09 418.013Z" fill="#DCDCDC"/>
<path d="M445.751 340.153C435.217 333.334 413.894 317.189 399.918 307.705C395.994 315.721 391.595 323.415 385.746 330.159C378.291 338.757 371.621 347.939 365.373 357.437C387.454 371.783 410.933 387.805 432.303 403.479C434.901 388.882 438.665 374.181 440.81 359.661C441.853 352.611 443.546 346.91 445.751 340.153Z" fill="#DCDCDC"/>
<path d="M654.797 26.4358C655.082 43.8291 654.587 62.0278 649.439 78.3811C656.146 78.4051 662.851 78.4558 669.557 78.4891C680.086 78.5424 698.606 78.3038 709.135 78.3811V22.9864C693.694 24.1651 670.245 25.1038 654.785 25.9931C654.787 26.1411 654.795 26.2891 654.797 26.4358Z" fill="#DCDCDC"/>
<path d="M669.557 86.4812C662.852 86.4479 656.145 86.3972 649.44 86.3732C647.208 93.4652 644.192 100.247 639.835 106.407C636.316 111.377 632.096 115.805 627.892 120.213C626.145 122.043 624.4 123.873 622.653 125.705C636.687 139.775 651.625 152.915 667.212 165.24C679.092 149.783 690.509 133.989 701.143 117.647V112.552C688.431 107.06 677.308 97.9585 669.557 86.4812Z" fill="#DCDCDC"/>
<path d="M709.135 14.9949V-27.2144H653.083C653.954 -12.1544 654.533 2.92025 654.785 18.0016C670.245 17.1123 693.694 16.1736 709.135 14.9949Z" fill="#DCDCDC"/>
<path d="M635.79 217.805C629.836 224.934 623.864 232.045 617.882 239.142C609.085 249.583 600.286 260.025 591.489 270.465C598.11 275.439 604.685 280.469 611.358 285.387C613.628 287.061 615.841 288.798 618.118 290.465C626.028 296.254 634.188 302.073 643.59 304.842C651.121 307.061 659.084 307.211 666.934 307.345L708.22 308.047V194.901C697.026 187.417 684.85 178.43 674.289 170.078C661.841 186.275 648.897 202.11 635.79 217.805Z" fill="#28A745"/>
<path d="M656.667 431.667C628.667 427 621.333 418.833 604.333 414.333L603.844 463.864H646.348H709.136V432.315C693.955 435.263 672.009 434.224 656.667 431.667Z" fill="#28A745"/>
<path d="M107.32 274.551C119.56 255.036 131.417 236.134 143.657 216.618C129.626 207.458 115.508 198.627 99.8916 192.586C94.8556 190.636 89.9929 188.339 85.2063 185.892C77.5076 199.762 71.1956 214.194 62.2983 227.275C51.7796 242.742 41.7223 257.094 31.9062 273.035C39.0502 271.156 44.0596 270.203 51.4303 269.383C70.1116 267.304 89.3476 269.055 107.32 274.551Z" fill="#DCDCDC"/>
<path d="M675.565 467.279H603.844V505.241H675.565V467.279Z" fill="#28A745"/>
<path d="M659.858 318.49C652.007 318.357 644.045 318.206 636.513 315.989C627.111 313.218 618.95 307.4 611.042 301.61C608.766 299.944 606.553 298.206 604.281 296.533V410.244C621.917 412.5 620.583 418.666 649.631 425.476C653.698 426.429 662.817 428.6 666.979 429.142C666.647 409.565 665.663 338.106 665.333 318.584C663.507 318.552 661.683 318.521 659.858 318.49Z" fill="#28A745"/>
<path d="M237.148 200.316C243.972 205.651 253.208 214.084 259.098 218.284C266.225 223.364 289.718 236.492 289.718 236.492L338.329 267.989L400.381 305.787C400.381 305.787 438.577 332.451 446.828 338.881C458.805 348.216 476.409 367.683 497.353 377.747C538.822 397.673 560.25 405.584 603.584 411.917C621.677 414.561 623.365 424.595 670.724 431.775C688.032 434.399 720.749 428.22 720.749 428.22" stroke="#B6D9F7" stroke-width="2.66667" stroke-miterlimit="10"/>
<path d="M-49.8334 80.8335C-20.676 83.1815 19.584 79.2361 42.1093 84.1721C67.452 89.7255 109.785 118.1 120.239 125.504C145.429 143.347 201.117 175.219 230.007 195.132" stroke="#B6D9F7" stroke-width="2.66667" stroke-miterlimit="10"/>
<path d="M233.144 698.501C231.318 683.696 229.45 668.975 227.866 654.137C227.478 650.424 227.104 646.713 226.836 642.964C226.546 639.24 226.344 635.412 226.439 631.551C226.608 623.871 227.676 616.461 228.783 609.056C229.914 601.66 231.304 594.327 232.848 587.024C234.406 579.721 236.155 572.465 238.268 565.26C239.299 561.66 240.478 558.057 241.922 554.472C243.403 550.968 244.984 547.54 246.686 544.2C250.063 537.501 253.715 530.996 257.482 524.567C265.063 511.745 272.987 499.144 281.64 486.992C290.08 474.948 297.868 462.331 305.538 449.681C313.188 437.009 320.644 424.208 327.932 411.32C331.587 404.899 335.083 398.348 338.87 391.928C342.623 385.511 346.479 379.164 350.403 372.86C354.328 366.556 358.324 360.299 362.419 354.099C366.534 347.903 370.676 341.761 375.196 335.771C377.542 332.789 380.019 330.048 382.432 327.239C384.828 324.429 387.292 321.663 389.243 318.669C393.187 312.536 396.526 305.896 399.738 299.263C401.318 295.926 402.839 292.56 404.279 289.167L406.37 284.027C407.087 282.288 407.859 280.583 408.664 278.895C411.903 272.156 415.606 265.67 419.727 259.44C423.899 253.226 428.372 247.324 432.819 241.376C437.287 235.452 441.797 229.563 446.335 223.696C450.807 217.777 455.626 212.097 460.295 206.361L474.395 189.17L481.446 180.573L488.243 171.796L501.948 154.262C506.558 148.443 511.172 142.637 515.96 136.925C520.774 131.148 525.995 125.867 531.06 120.462C536.142 115.086 541.266 109.688 546.122 104.217C548.339 101.581 550.323 98.4455 552.15 95.3348C553.056 93.7655 553.922 92.1695 554.712 90.5602C555.494 88.9615 556.235 87.3002 556.69 85.7722L560.639 86.8988C560.014 88.9202 559.2 90.6402 558.347 92.3628C557.488 94.0735 556.57 95.7295 555.61 97.3615C553.648 100.613 551.647 103.768 549.067 106.791C544.033 112.363 538.895 117.673 533.747 123.028C528.63 128.392 523.372 133.623 518.644 139.204C513.859 144.814 509.195 150.572 504.55 156.335C499.907 162.105 495.302 167.908 490.719 173.729L483.831 182.48L476.709 191.023L462.466 208.108C457.73 213.832 452.906 219.421 448.391 225.299C443.811 231.123 439.262 236.969 434.754 242.845C430.276 248.735 425.742 254.62 421.603 260.685C417.55 266.821 413.889 273.244 410.709 279.869C409.919 281.528 409.163 283.199 408.466 284.889L406.37 290.05C404.917 293.48 403.386 296.872 401.795 300.236C398.605 306.963 395.338 313.639 391.318 320.019C389.24 323.257 386.771 326.064 384.39 328.915C381.998 331.748 379.53 334.536 377.318 337.403C372.968 343.296 368.88 349.496 364.863 355.695C360.854 361.911 356.939 368.192 353.095 374.516C349.254 380.841 345.48 387.208 341.819 393.629C338.14 400.023 334.726 406.591 331.118 413.096C323.954 426.097 316.623 439.003 309.088 451.799C301.526 464.584 293.87 477.304 285.424 489.64C277.007 501.736 269.266 514.348 261.898 527.127C258.24 533.529 254.702 539.999 251.476 546.575C249.848 549.859 248.362 553.184 246.991 556.521C245.715 559.832 244.579 563.277 243.578 566.807C239.606 580.907 236.407 595.363 234.163 609.876C233.074 617.124 232.255 624.463 232.199 631.613C232.183 635.167 232.544 638.744 232.952 642.399C233.347 646.031 233.852 649.681 234.371 653.327C235.388 660.625 236.692 667.903 238.002 675.176C238.651 678.813 239.346 682.447 240.084 686.071C240.81 689.693 241.543 693.328 242.342 696.919L233.144 698.501Z" fill="#B6D9F7"/>
</g>
<mask id="mask1_34_2" style="mask-type:luminance" maskUnits="userSpaceOnUse" x="0" y="0" width="667" height="667">
<path d="M0 0.000121117H666.667V666.667H0V0.000121117Z" fill="white"/>
</mask>
<g mask="url(#mask1_34_2)">
<path d="M563.333 8.60393e-05C563.333 8.60393e-05 565.583 40.4161 564.5 53.8334C564.001 60.0001 560 78.1667 560 78.1667" stroke="#B6D9F7" stroke-width="4" stroke-miterlimit="10"/>
</g>
</g>
<defs>
<clipPath id="clip0_34_2">
<rect width="666.667" height="666.667" fill="white"/>
</clipPath>
</defs>
</svg>
