<svg width="512" height="512" viewBox="0 0 512 512" fill="none" xmlns="http://www.w3.org/2000/svg">
<g clip-path="url(#clip0_11_7)">
<path d="M256 0C114.6 0 0 114.6 0 256C0 397.4 114.6 512 256 512C397.4 512 512 397.4 512 256C512 114.6 397.4 0 256 0ZM368 360C368 373.25 357.25 384 344 384C330.75 384 320 373.3 320 360V280H192V360C192 373.3 181.3 384 168 384C154.7 384 144 373.3 144 360V152C144 138.8 154.8 128 168 128C181.2 128 192 138.8 192 152V232H320V152C320 138.8 330.8 128 344 128C357.2 128 368 138.75 368 152V360Z" fill="#28A745"/>
</g>
<defs>
<clipPath id="clip0_11_7">
<rect width="512" height="512" fill="white"/>
</clipPath>
</defs>
</svg>
