<svg width="96" height="96" viewBox="0 0 96 96" fill="none" xmlns="http://www.w3.org/2000/svg">
<g clip-path="url(#clip0_12_2)">
<path d="M48 0C38.5065 0 29.2262 2.81515 21.3326 8.08946C13.4391 13.3638 7.28681 20.8603 3.6538 29.6312C0.0207977 38.402 -0.929762 48.0532 0.922328 57.3643C2.77442 66.6754 7.34598 75.2282 14.0589 81.9411C20.7718 88.654 29.3246 93.2256 38.6357 95.0777C47.9468 96.9298 57.598 95.9792 66.3688 92.3462C75.1397 88.7132 82.6363 82.5609 87.9106 74.6674C93.1849 66.7738 96 57.4935 96 48C95.9875 35.2735 90.9263 23.0718 81.9273 14.0727C72.9283 5.07371 60.7266 0.0125489 48 0ZM48 84C40.8799 84 33.9197 81.8886 27.9995 77.9329C22.0793 73.9772 17.4651 68.3547 14.7404 61.7766C12.0156 55.1985 11.3027 47.9601 12.6918 40.9767C14.0808 33.9934 17.5095 27.5788 22.5442 22.5442C27.5789 17.5095 33.9935 14.0808 40.9768 12.6917C47.9601 11.3027 55.1985 12.0156 61.7766 14.7403C68.3548 17.4651 73.9772 22.0793 77.9329 27.9995C81.8887 33.9196 84 40.8799 84 48C83.9896 57.5446 80.1934 66.6953 73.4444 73.4444C66.6953 80.1934 57.5446 83.9896 48 84Z" fill="white"/>
<path d="M48 24C43.2533 24 38.6131 25.4076 34.6663 28.0447C30.7195 30.6819 27.6434 34.4302 25.8269 38.8156C24.0104 43.201 23.5351 48.0266 24.4612 52.6822C25.3872 57.3377 27.673 61.6141 31.0294 64.9706C34.3859 68.327 38.6623 70.6128 43.3178 71.5388C47.9734 72.4649 52.799 71.9896 57.1844 70.1731C61.5698 68.3566 65.3181 65.2805 67.9553 61.3337C70.5924 57.3869 72 52.7468 72 48C71.9918 41.6373 69.4605 35.5376 64.9615 31.0386C60.4624 26.5395 54.3627 24.0083 48 24ZM48 60C45.6266 60 43.3066 59.2962 41.3332 57.9776C39.3598 56.6591 37.8217 54.7849 36.9135 52.5922C36.0052 50.3995 35.7676 47.9867 36.2306 45.6589C36.6936 43.3311 37.8365 41.1929 39.5147 39.5147C41.193 37.8365 43.3312 36.6936 45.6589 36.2306C47.9867 35.7676 50.3995 36.0052 52.5922 36.9134C54.7849 37.8217 56.6591 39.3598 57.9776 41.3332C59.2962 43.3065 60 45.6266 60 48C59.9979 51.1819 58.7329 54.2329 56.4829 56.4829C54.233 58.7329 51.182 59.9979 48 60Z" fill="white"/>
</g>
<defs>
<clipPath id="clip0_12_2">
<rect width="96" height="96" fill="white"/>
</clipPath>
</defs>
</svg>
