<svg width="800" height="800" viewBox="0 0 800 800" fill="none" xmlns="http://www.w3.org/2000/svg">
<path fill-rule="evenodd" clip-rule="evenodd" d="M66.6666 266.667C66.6666 193.029 126.362 133.333 200 133.333H600C673.637 133.333 733.333 193.029 733.333 266.667V283.333C733.333 292.538 725.87 300 716.667 300H83.3333C74.1286 300 66.6666 292.538 66.6666 283.333V266.667ZM83.3333 366.667C74.1286 366.667 66.6666 374.13 66.6666 383.333V533.333C66.6666 606.97 126.362 666.667 200 666.667H600C673.637 666.667 733.333 606.97 733.333 533.333V383.333C733.333 374.13 725.87 366.667 716.667 366.667H83.3333ZM433.333 500C433.333 481.59 448.257 466.667 466.667 466.667H566.667C585.077 466.667 600 481.59 600 500C600 518.41 585.077 533.333 566.667 533.333H466.667C448.257 533.333 433.333 518.41 433.333 500Z" fill="#28A745"/>
</svg>
